<?xml version="1.0" encoding="UTF-8" standalone="no"?>
<!-- Created with Inkscape (http://www.inkscape.org/) -->

<svg
   version="1.1"
   id="svg1"
   width="840"
   height="730"
   viewBox="0 0 840 730"
   sodipodi:docname="Tux-logo."
   inkscape:version="1.4.3 (0d15f75042, 2025-12-25)"
   xmlns:inkscape="http://www.inkscape.org/namespaces/inkscape"
   xmlns:sodipodi="http://sodipodi.sourceforge.net/DTD/sodipodi-0.dtd"
   xmlns="http://www.w3.org/2000/svg"
   xmlns:svg="http://www.w3.org/2000/svg">
  <defs
     id="defs1" />
  <sodipodi:namedview
     id="namedview1"
     pagecolor="#ffffff"
     bordercolor="#000000"
     borderopacity="0.25"
     inkscape:showpageshadow="2"
     inkscape:pageopacity="0.0"
     inkscape:pagecheckerboard="0"
     inkscape:deskcolor="#d1d1d1"
     inkscape:zoom="1.0945205"
     inkscape:cx="419.81852"
     inkscape:cy="365"
     inkscape:window-width="2560"
     inkscape:window-height="1008"
     inkscape:window-x="0"
     inkscape:window-y="0"
     inkscape:window-maximized="1"
     inkscape:current-layer="g1" />
  <g
     inkscape:groupmode="layer"
     inkscape:label="Image"
     id="g1">
    <g
       id="g9"
       transform="translate(-542.70338,-13.704632)">
      <path
         style="display:inline;fill:#010100"
         d="m 835.81487,690.69507 c -6.61841,-1.36045 -12.46235,-3.38245 -36.07519,-12.48202 -29.96108,-11.54596 -38.39744,-13.96163 -76.7629,-21.98029 -38.26669,-7.99802 -46.2371,-12.01678 -46.2371,-23.31323 0,-2.15638 1.60644,-9.04123 3.56987,-15.29966 4.9642,-15.82336 5.47427,-25.04792 2.12216,-38.37895 -3.45751,-13.75018 -4.00591,-17.83222 -3.22999,-24.04252 0.72529,-5.80495 3.42698,-10.58002 7.83309,-13.84447 2.44357,-1.81043 4.80442,-2.15439 18.77081,-2.73479 14.60277,-0.60683 16.45094,-0.8964 21.50587,-3.36955 6.6137,-3.23579 9.19119,-6.77713 14.36233,-19.73316 2.13083,-5.33869 4.27933,-9.27551 5.06205,-9.27551 5.34291,0 0.45162,24.11202 -6.55083,32.29279 -5.59099,6.53183 -10.70615,7.62262 -31.56462,6.73108 l -16.77837,-0.71715 -2.55118,2.55118 c -4.04167,4.04167 -3.49907,9.46567 2.36415,23.63276 5.8547,14.1465 7.53283,21.44743 6.71912,29.2325 -0.75841,7.25608 -2.4634,11.34817 -8.68096,20.8348 -5.56851,8.49633 -6.14443,11.86009 -2.51891,14.71193 2.76869,2.17785 25.483,8.4307 64.38718,17.72467 14.67303,3.50529 36.57823,8.84791 48.67823,11.87248 29.33505,7.33273 32.95541,7.95564 43.21816,7.43592 9.87329,-0.49999 14.69531,-2.42578 19.94456,-7.96533 9.99897,-10.55196 13.33621,-31.0371 7.76452,-47.66131 -3.66131,-10.92422 -8.28261,-18.8325 -30.57635,-52.32425 -37.97051,-57.0429 -53.91711,-75.38982 -67.26652,-77.39169 -3.10381,-0.46544 -6.03379,0.0329 -11.57406,1.96855 -9.86397,3.44626 -10.11624,3.17456 -10.76376,-11.59284 -0.6695,-15.26845 0.41646,-18.96809 13.09366,-44.60737 5.77573,-11.68126 13.27916,-28.32392 16.67428,-36.98369 3.39512,-8.65976 8.2035,-20.92003 10.68528,-27.24503 6.19218,-15.78119 10.56603,-23.4205 22.98307,-40.14191 12.19401,-16.42106 42.12181,-59.69074 44.87736,-64.88378 2.13609,-4.02563 2.19391,-8.13339 0.54155,-38.47431 -2.13553,-39.21281 -3.22091,-88.67196 -2.1847,-99.55296 2.71343,-28.493045 8.84018,-43.736035 23.54156,-58.569929 10.51079,-10.605536 17.86388,-14.820366 33.25314,-19.060876 9.18142,-2.529938 11.09016,-2.698078 30.78825,-2.712121 19.37519,-0.01381 21.8124,0.188474 31.5,2.61447 25.42602,6.367267 44.88632,18.904942 56.90862,36.664601 10.8908,16.088065 13.7205,27.385345 17.0615,68.116815 5.2279,63.73532 6.3216,69.63538 16.776,90.5 15.1401,30.21628 27.412,50.01214 48.3686,78.02388 29.7523,39.76836 40.9229,63.67245 49.7574,106.47612 9.9986,48.44374 8.3577,60.73904 -10.8357,81.18942 -23.2232,24.74418 -44.6301,34.71749 -59.7683,27.84561 -8.3394,-3.78559 -17.8862,-14.72683 -21.8445,-25.03503 -0.9504,-2.475 -2.6379,-5.5125 -3.7501,-6.75 -4.1644,-4.63361 -13.0657,-1.49801 -16.9126,5.95771 -4.6711,9.05284 -4.6937,31.32644 -0.056,54.79229 3.2003,16.19206 3.5539,37.01886 0.9126,53.74342 -2.365,14.97417 -2.1604,26.11264 0.588,32.01748 3.3595,7.21783 12.1211,15.46637 19.3016,18.17133 5.0191,1.89077 7.4546,2.19374 14.9926,1.86513 11.9715,-0.52189 16.27,-2.61408 34.7213,-16.89965 23.0972,-17.88256 28.757,-21.07108 51.4394,-28.9787 25.2122,-8.78962 33.0444,-12.52887 39.2584,-18.74291 6.3227,-6.32267 8.2465,-11.86814 5.7272,-16.50856 -2.6548,-4.88983 -7.0797,-7.39417 -20.6611,-11.69359 -14.5285,-4.59925 -18.1897,-7.12801 -22.7747,-15.73042 -4.3526,-8.16624 -6.2105,-16.10966 -6.2105,-26.5525 0,-9.30002 1.8792,-15.69103 4.6139,-15.69103 0.7623,0 1.3949,0.1125 1.4056,0.25 0.8011,10.2582 3.3331,22.5132 5.5605,26.91284 3.5551,7.02201 14.6076,17.83034 26.42,25.83632 16.9685,11.50056 21.1746,16.92615 19.6055,25.28982 -1.3837,7.37611 -21.4734,21.78868 -49.1055,35.22899 -24.8457,12.08499 -33.1417,17.88311 -55.0164,38.45127 -16.9811,15.96682 -26.1831,19.15074 -49.2338,17.03514 -18.2975,-1.67936 -27.0757,-6.10091 -33.8907,-17.07068 -2.1225,-3.41654 -5.2863,-7.83679 -7.0306,-9.82279 l -3.1714,-3.61091 -27.8286,-0.6514 c -39.87764,-0.93343 -86.9557,-0.0734 -96.67415,1.76605 -14.59639,2.76273 -22.98755,7.07277 -38.75283,19.90503 -4.36062,3.54936 -9.61456,7.31359 -11.67542,8.36496 -4.60817,2.35091 -13.24267,3.28398 -19.15093,2.06951 z m 59.87668,-40.70415 c 3.94568,-4.77688 5.39688,-10.16677 4.79125,-17.79519 -0.55381,-6.9757 -2.32776,-10.84176 -8.39538,-18.29648 -4.57487,-5.62071 -5.00764,-6.63245 -3.2909,-7.69346 1.95565,-1.20866 5.45597,0.43042 12.79835,5.99302 10.75586,8.14866 14.63022,9.07567 37.14481,8.88748 21.05652,-0.176 33.70054,-1.87521 45.79153,-6.15387 14.43159,-5.10693 19.77339,-9.2256 35.01259,-26.99557 6.1733,-7.19842 9.6003,-8.64964 12.3646,-5.2359 2.8825,3.5598 2.3674,12.58573 -1.6225,28.42745 -4.6888,18.61685 -5.865,27.48818 -4.2815,32.29326 1.3597,4.12578 5.9157,7.53886 7.6921,5.76245 0.5651,-0.56513 2.3827,-9.90335 4.039,-20.75158 3.3469,-21.92082 4.9542,-51.91739 4.9934,-93.19161 0.023,-24.5238 0.6013,-28.67146 4.6683,-33.50486 3.6056,-4.28502 7.3725,-5.97981 14.8409,-6.67723 l 6.4421,-0.60157 1.5376,-5.2891 c 3.1466,-10.82379 11.8242,-15.42724 29.0809,-15.42724 9.6439,0 11.2146,0.28546 19.6003,3.56224 5.5734,2.17786 9.4751,3.20338 10.0396,2.63883 1.308,-1.30795 -7.4612,-8.78548 -14.4489,-12.32078 -6.7862,-3.4333 -6.7802,-3.40136 -3.1546,-16.88029 3.5092,-13.04578 4.4716,-37.59248 1.9636,-50.07912 -4.92,-24.49491 -28.3658,-65.81167 -43.0974,-75.94728 -8.1219,-5.58801 -8.1571,-3.47597 -0.1421,8.5264 17.5032,26.21079 28.2306,47.46379 32.8899,65.16122 2.8923,10.98579 3.1231,13.09967 3.2037,29.33878 0.069,13.88235 -0.2668,18.64103 -1.6241,23.01962 -2.1184,6.83414 -6.7411,13.94995 -10.4712,16.11865 -3.672,2.13487 -14.03,3.30186 -17.5222,1.97413 -4.8995,-1.86279 -5.473,-4.64993 -6.1961,-30.1124 -0.367,-12.925 -1.1499,-27.325 -1.7398,-32 -1.4965,-11.85978 -5.8517,-24.80253 -13.0112,-38.66607 -16.2047,-31.3788 -18.532,-36.34923 -20.29,-43.33393 -5.5376,-22.00174 -10.7199,-34.0132 -21.9556,-50.88815 -12.4523,-18.70198 -13.56427,-23.53532 -9.1153,-39.61888 4.067,-14.70286 3.1883,-20.54072 -3.6217,-24.06232 -1.65702,-0.85686 -8.22007,-3.3535 -14.5846,-5.54808 -12.59247,-4.34207 -18.06767,-6.86651 -22.9434,-10.57848 -10.49014,-7.98632 -7.29583,-30.60341 4.97718,-35.24047 6.31994,-2.38784 14.07779,-0.51232 19.59664,4.73764 5.3463,5.08581 6.03155,9.95013 3.06811,21.77918 l -2.21068,8.82426 2.67118,2.29765 c 1.765,1.51819 3.9501,2.29765 6.4411,2.29765 5.53087,0 7.99417,-3.10136 9.23417,-11.62605 1.1718,-8.05638 0.5422,-15.02898 -2.2869,-25.32775 -5.45772,-19.86748 -11.91635,-25.77644 -30.21265,-27.64134 -12.23413,-1.247 -20.14997,3.59258 -26.04429,15.92292 -4.38994,9.18332 -5.89192,17.57791 -4.99165,27.89843 l 0.70153,8.04213 -3.39083,-0.64347 c -1.86496,-0.35391 -7.66583,-0.92071 -12.89083,-1.25955 -5.225,-0.33885 -9.99888,-1.01196 -10.60863,-1.49582 -0.61743,-0.48995 -1.35804,-5.64048 -1.67154,-11.62462 -1.27845,-24.40317 -11.70381,-36.83134 -27.06936,-32.26963 -5.51224,1.63647 -11.64,8.13472 -14.02833,14.8765 -2.61142,7.37151 -1.88234,28.74066 1.28287,37.60056 2.15993,6.04595 5.43792,10.54769 7.68041,10.54769 1.72561,0 6.41458,-5.78163 6.41458,-7.90936 0,-0.96575 -1.73112,-3.14708 -3.84693,-4.84739 -3.01327,-2.42153 -4.20517,-4.36822 -5.5,-8.98297 -2.9842,-10.6356 -1.87311,-15.84758 4.25938,-19.98026 4.27205,-2.87894 9.91914,-2.98693 13.39086,-0.25608 3.15575,2.48232 7.41153,11.02906 8.27751,16.62348 0.95417,6.16416 -0.99218,10.74913 -6.40683,15.09248 -16.67302,13.3742 -24.53341,20.81838 -26.37258,24.97615 -2.87791,6.50599 -1.82604,9.56705 4.72831,13.75981 2.9483,1.88601 7.01914,5.65073 9.04632,8.36605 2.02718,2.71533 5.53937,5.99921 7.80487,7.29752 3.73597,2.14101 5.28173,2.35777 16.61909,2.33047 14.70597,-0.0354 21.92095,-1.48884 42.91612,-8.64526 21.66195,-7.38369 28.39912,-10.40718 30.98565,-13.90565 2.93557,-3.97057 7.43263,-3.84806 7.90349,0.2153 0.41334,3.56709 -2.93328,5.51985 -20.91503,12.20393 -7.91602,2.9425 -19.22031,7.45206 -25.12063,10.02124 -16.63193,7.24204 -20.65884,8.00838 -38.49195,7.3252 -9.21598,-0.35306 -15.45421,-0.20799 -15.80999,0.36766 -0.74461,1.20482 4.36086,5.93993 11.78996,10.93469 6.80516,4.57526 13.83652,5.87268 22.45108,4.14262 7.60689,-1.52768 25.9932,-8.98946 42.52797,-17.25928 14.39743,-7.20082 18.02518,-8.11811 19.70353,-4.98209 1.51984,2.83986 -2.78924,6.55169 -13.43186,11.57016 -10.62806,5.0116 -27.03334,15.72665 -37.4156,24.43783 -9.26681,7.77528 -12.01732,9.19715 -19.00489,9.82448 -9.11354,0.8182 -12.98128,-0.8043 -20.22422,-8.48396 -3.5,-3.71103 -8.43828,-9.89496 -10.97396,-13.74205 -5.08854,-7.72026 -10.11742,-13.49472 -11.75234,-13.49472 -0.58313,0 -1.54268,1.9125 -2.13234,4.25 -2.05563,8.14897 -5.17757,15.8942 -12.90548,32.01732 -4.27923,8.92798 -8.13843,17.13268 -8.576,18.23268 -0.43757,1.1 -1.08404,9.46966 -1.43661,18.59923 l -0.64104,16.59924 -5.61372,8.40076 c -12.26032,18.34722 -24.93695,49.20084 -28.30881,68.90077 -1.61404,9.4299 -3.45151,34.83412 -3.26725,45.17161 0.12134,6.80756 -1.09357,9.82839 -3.95276,9.82839 -2.32582,0 -12.74649,-10.56092 -15.60753,-15.8176 -5.01051,-9.20596 -5.70539,-23.14323 -2.07127,-41.54383 2.14795,-10.87571 0.52984,-12.32993 -3.68871,-3.31509 -4.27099,9.12689 -5.76493,24.93377 -3.49898,37.02157 2.66502,14.21673 6.90421,21.26716 21.43811,35.65495 13.95835,13.81802 32.55125,30.065 53.12506,46.42211 23.77316,18.90073 28.34308,24.4065 28.39918,34.21493 0.0396,6.92083 -3.56944,12.0131 -12.80268,18.06432 -3.90308,2.55797 -7.22304,4.73565 -7.3777,4.83928 -0.15466,0.10363 3.33533,5.31189 7.75553,11.57389 4.4202,6.26201 9.87846,14.98547 12.12946,19.38547 4.08488,7.98468 4.09184,8.01772 3.63381,17.25 -0.2524,5.0875 -0.10437,9.25 0.32894,9.25 0.43332,0 2.18172,-1.6875 3.88533,-3.75 z m 8.40976,-452.75 c -1.00694,-2.62403 0.4157,-4.353 4.6176,-5.61192 3.11482,-0.93323 4.36233,-0.94652 5.25287,-0.056 0.89053,0.89053 0.78034,1.1679 -0.46401,1.1679 -0.89754,0 -2.59319,1.35 -3.76809,3 -2.31312,3.24848 -4.72155,3.8892 -5.63837,1.5 z m 34.88837,-2.9715 c -4.96484,-2.18751 -4.06856,-3.68015 2,-3.33076 4.48258,0.25808 5.25,0.59461 5.25,2.30226 0,2.52939 -2.90743,2.94185 -7.25,1.0285 z M 812.48056,367.15086 c 7.32382,-7.64356 9.4133,-12.23863 7.65213,-16.82815 -0.74046,-1.92961 -3.74311,-2.0698 -5.25718,-0.24546 -0.60998,0.73499 -1.80793,3.32249 -2.66211,5.75 -0.85417,2.42752 -2.8852,6.07478 -4.51338,8.10503 -2.90854,3.62677 -3.61357,5.82208 -2.29367,7.14197 1.35203,1.35204 2.77636,0.5621 7.07421,-3.92339 z M 1049.2623,261.34669 c 0.8628,-1.31683 1.8338,-4.02701 2.1576,-6.02262 0.7366,-4.539 -1.0244,-6.67849 -8.2016,-9.9643 -2.8703,-1.31405 -7.0739,-4.06526 -9.3414,-6.1138 -7.5585,-6.82869 -9.2711,-1.74816 -3.4769,10.31492 1.7719,3.68914 4.2849,6.6778 8.1975,9.74937 6.4245,5.04358 8.442,5.42882 10.6648,2.03643 z m -148.0985,-83.2455 c -0.0915,-4.91966 -4.24087,-13.73403 -6.67714,-14.18418 -2.808,-0.51883 -3.30681,2.79728 -1.01877,6.77283 1.14093,1.9824 2.59376,5.53307 3.22852,7.89038 0.85662,3.18125 1.59089,4.19746 2.84868,3.94248 1.27571,-0.25861 1.67583,-1.35155 1.61871,-4.42151 z m 86.33586,-2.36926 c 0.14299,-2.47006 -0.31357,-5.6025 -1.01457,-6.96099 -1.72289,-3.33885 -7.41153,-7.03002 -10.83428,-7.03002 -3.47484,0 -4.90187,2.00057 -2.45246,3.43814 4.49897,2.64047 7.49677,5.91666 8.55053,9.34459 0.62849,2.0445 1.33217,4.31303 1.56373,5.04118 0.23156,0.72815 1.20988,1.1741 2.17405,0.991 1.31118,-0.24899 1.81855,-1.46484 2.013,-4.8239 z m 3.57897,-77.991004 c 2.60178,-1.65 6.03558,-3 7.63068,-3 3.74709,0 8.03039,-1.637942 8.03039,-3.070879 0,-3.94192 -11.15667,-12.929121 -16.05014,-12.929121 -2.97024,0 -4.25182,2.221756 -5.45996,9.465445 -0.36376,2.180995 -1.2978,5.196148 -2.07565,6.70034 -3.36877,6.514479 0.14176,7.769989 7.92468,2.834215 z"
         id="path9" />
    </g>
  </g>
</svg>
